<?xml version="1.0" encoding="UTF-8" ?>
<!DOCTYPE svg PUBLIC "-//W3C//DTD SVG 1.1//EN" "http://www.w3.org/Graphics/SVG/1.1/DTD/svg11.dtd">
<svg width="57pt" height="57pt" viewBox="0 0 57 57" version="1.1" xmlns="http://www.w3.org/2000/svg">
<path fill="#ffffff" d=" M 0.00 0.00 L 57.00 0.00 L 57.00 57.00 L 48.15 57.00 C 49.59 50.40 50.63 43.73 52.02 37.12 C 52.39 34.60 53.37 31.64 51.50 29.46 C 48.57 25.61 44.06 23.41 39.77 21.41 C 40.23 18.75 40.63 16.09 41.03 13.42 C 43.06 12.83 46.15 11.98 45.88 9.28 C 45.13 6.77 43.80 3.10 40.43 4.32 C 35.99 5.36 36.73 11.16 39.86 13.32 C 38.97 15.80 38.04 18.26 37.13 20.74 C 32.26 19.87 27.29 19.57 22.34 19.55 C 22.02 17.43 21.66 15.32 21.31 13.21 C 23.00 11.67 25.33 9.86 24.72 7.26 C 24.07 3.32 17.48 2.40 16.13 6.39 C 14.57 9.50 17.54 11.99 20.05 13.19 C 20.01 15.46 19.98 17.72 19.98 19.99 C 15.89 20.82 11.75 21.97 8.47 24.67 C 8.38 28.12 8.52 31.59 8.24 35.03 C 7.95 38.15 6.18 40.89 5.83 43.99 C 5.82 46.49 7.76 48.36 9.05 50.32 C 9.18 52.54 9.26 54.77 9.33 57.00 L 0.00 57.00 L 0.00 0.00 Z" />
<path fill="#000000" d=" M 16.13 6.39 C 17.48 2.40 24.07 3.32 24.72 7.26 C 25.33 9.86 23.00 11.67 21.31 13.21 C 21.66 15.32 22.02 17.43 22.34 19.55 C 21.75 19.66 20.57 19.88 19.98 19.99 C 19.98 17.72 20.01 15.46 20.05 13.19 C 17.54 11.99 14.57 9.50 16.13 6.39 Z" />
<path fill="#000000" d=" M 40.43 4.32 C 43.80 3.10 45.13 6.77 45.88 9.28 C 46.15 11.98 43.06 12.83 41.03 13.42 C 40.63 16.09 40.23 18.75 39.77 21.41 C 39.11 21.24 37.79 20.91 37.13 20.74 C 38.04 18.26 38.97 15.80 39.86 13.32 C 36.73 11.16 35.99 5.36 40.43 4.32 Z" />
<path fill="#afafaf" d=" M 22.27 6.13 C 22.87 6.74 22.87 6.74 22.27 6.13 Z" />
<path fill="#6faf44" d=" M 22.34 19.55 C 27.29 19.57 32.26 19.87 37.13 20.74 C 37.79 20.91 39.11 21.24 39.77 21.41 C 44.06 23.41 48.57 25.61 51.50 29.46 C 53.37 31.64 52.39 34.60 52.02 37.12 C 50.63 43.73 49.59 50.40 48.15 57.00 L 9.33 57.00 C 9.26 54.77 9.18 52.54 9.05 50.32 C 10.69 50.31 12.33 50.31 13.96 50.26 C 13.82 50.74 13.52 51.70 13.38 52.18 C 15.79 51.20 18.82 50.64 20.10 48.08 C 21.68 45.47 21.61 41.86 19.09 39.86 C 16.42 37.14 12.76 36.10 9.03 36.54 C 8.84 32.59 8.66 28.63 8.47 24.67 C 11.75 21.97 15.89 20.82 19.98 19.99 C 20.57 19.88 21.75 19.66 22.34 19.55 Z" />
<path fill="#d8eabe" d=" M 8.24 35.03 C 8.52 31.59 8.38 28.12 8.47 24.67 C 8.66 28.63 8.84 32.59 9.03 36.54 C 12.76 36.10 16.42 37.14 19.09 39.86 C 18.96 42.05 19.11 44.31 18.51 46.44 C 17.80 48.44 15.71 49.36 13.96 50.26 C 12.33 50.31 10.69 50.31 9.05 50.32 C 7.76 48.36 5.82 46.49 5.83 43.99 C 6.18 40.89 7.95 38.15 8.24 35.03 Z" />
<path fill="#d8eabe" d=" M 31.41 38.39 C 34.34 36.78 37.39 38.63 40.06 39.86 C 40.61 42.67 41.86 45.73 40.57 48.52 C 39.35 51.23 36.26 52.05 33.83 53.31 C 31.77 52.07 29.17 51.28 28.00 48.99 C 26.19 45.32 27.39 40.05 31.41 38.39 Z" />
<path fill="#000000" d=" M 9.24 39.36 C 10.42 39.23 11.59 39.10 12.76 38.98 C 12.21 39.57 11.67 40.16 11.12 40.76 C 13.44 41.25 12.82 43.74 11.10 44.58 C 8.24 44.36 9.39 41.28 9.24 39.36 Z" />
<path fill="#2a9d4e" d=" M 19.09 39.86 C 21.61 41.86 21.68 45.47 20.10 48.08 C 18.82 50.64 15.79 51.20 13.38 52.18 C 13.52 51.70 13.82 50.74 13.96 50.26 C 15.71 49.36 17.80 48.44 18.51 46.44 C 19.11 44.31 18.96 42.05 19.09 39.86 Z" />
<path fill="#8d9283" d=" M 30.74 39.93 C 31.57 39.95 33.22 39.99 34.05 40.02 C 34.49 41.42 34.67 42.88 34.51 44.34 C 33.34 43.11 32.22 41.83 31.18 40.49 L 30.74 39.93 Z" />
<path fill="#2b9f51" d=" M 40.06 39.86 C 44.24 42.36 44.33 48.71 40.87 51.87 C 39.07 53.76 36.23 54.38 33.83 53.31 C 36.26 52.05 39.35 51.23 40.57 48.52 C 41.86 45.73 40.61 42.67 40.06 39.86 Z" />
<path fill="#2c2a28" d=" M 31.23 46.00 C 29.25 44.72 29.84 42.01 31.18 40.49 C 32.22 41.83 33.34 43.11 34.51 44.34 C 33.59 45.22 32.69 46.42 31.23 46.00 Z" />
</svg>